External Loads File
version=1
nRows=78
nColumns=13
Range=5.000000e-03-10 seconds
endheader
time 	forceRightX 	forceRightY 	forceRightZ 	pointRightX 	pointRightY 	pointRightZ 	forceLeftX 	forceLeftY 	forceLeftZ 	pointLeftX 	pointLeftY 	pointLeftZ 		
7.505000 -42.464031 164.099843 -0.000000 0.369932 0.489572 -0.126233 121.802444 145.306683 -0.000000 0.236902 0.162553 -0.364817
7.510000 -42.634686 175.694551 -0.000000 0.377097 0.485486 -0.126151 117.205875 122.715792 -0.000000 0.228459 0.166973 -0.364677
7.515000 -43.611888 188.872064 -0.000000 0.383920 0.480663 -0.126187 112.163340 103.089528 -0.000000 0.220440 0.170796 -0.364090
7.520000 -44.722051 203.709064 -0.000000 0.390471 0.475049 -0.126134 107.469971 86.166741 -0.000000 0.212679 0.176475 -0.363738
7.525000 -45.785281 220.039314 -0.000000 0.396697 0.468840 -0.126046 103.381833 71.997772 -0.000000 0.205241 0.184330 -0.363574
7.530000 -47.998080 237.297284 -0.000000 0.402408 0.461968 -0.126064 99.770112 61.107707 -0.000000 0.198113 0.191082 -0.363359
7.535000 -50.788554 255.196427 -0.000000 0.408184 0.454494 -0.125676 97.141859 52.983666 -0.000000 0.191412 0.198211 -0.363217
7.540000 -54.515549 273.191375 -0.000000 0.413554 0.446538 -0.125501 95.623294 47.393642 -0.000000 0.185176 0.205934 -0.363279
7.545000 -59.198504 290.789415 -0.000000 0.418438 0.437865 -0.125236 95.326678 43.843314 -0.000000 0.179376 0.214089 -0.363298
7.550000 -64.492167 307.613866 -0.000000 0.423304 0.428599 -0.125150 96.286204 41.699682 -0.000000 0.174018 0.222719 -0.363613
7.555000 -70.499907 323.291535 -0.000000 0.428006 0.418807 -0.125175 98.342780 40.544508 -0.000000 0.169191 0.231631 -0.363723
7.560000 -77.655066 337.502930 -0.000000 0.432022 0.409037 -0.125279 101.221593 40.160604 -0.000000 0.164944 0.240942 -0.363829
7.565000 -85.552172 350.271687 -0.000000 0.435480 0.399022 -0.125136 104.714823 40.177338 -0.000000 0.161293 0.250442 -0.363828
7.570000 -93.271747 361.937936 -0.000000 0.438544 0.388409 -0.125383 108.647897 40.120326 -0.000000 0.158207 0.260206 -0.363916
7.575000 -101.160910 372.682761 -0.000000 0.441033 0.377798 -0.125609 112.684282 39.898944 -0.000000 0.155732 0.270196 -0.363935
7.580000 -108.650989 383.019699 -0.000000 0.443065 0.367095 -0.125856 116.577276 39.184431 -0.000000 0.153786 0.280406 -0.363883
7.585000 -115.423467 393.450444 -0.000000 0.444623 0.356271 -0.125930 120.049983 37.810477 -0.000000 0.152457 0.290786 -0.363800
7.590000 -121.156303 404.475796 -0.000000 0.445643 0.345382 -0.125912 122.853513 35.704067 -0.000000 0.151319 0.301300 -0.362965
7.595000 -125.653479 416.528831 -0.000000 0.446067 0.334327 -0.125752 124.787715 32.898060 -0.000000 0.151277 0.311908 -0.362953
7.600000 -128.668458 429.980809 -0.000000 0.446208 0.323209 -0.125633 125.725411 29.442271 -0.000000 0.151865 0.322573 -0.362893
7.605000 -130.179003 445.003806 -0.000000 0.445499 0.312130 -0.125390 125.590101 25.456591 -0.000000 0.153094 0.333264 -0.362864
7.610000 -130.298496 461.577715 -0.000000 0.444240 0.301223 -0.125617 124.374658 21.090761 -0.000000 0.154939 0.343879 -0.362910
7.615000 -126.689222 480.177441 -0.000000 0.442941 0.289048 -0.124484 122.216099 15.850610 -0.000000 0.157410 0.354434 -0.362786
7.620000 -123.128018 499.424605 -0.000000 0.439770 0.278495 -0.125757 119.027717 10.824414 -0.000000 0.160517 0.364833 -0.362867
7.625000 -117.543558 519.384362 -0.000000 0.436868 0.268059 -0.126345 114.966353 5.533237 -0.000000 0.164310 0.375259 -0.362956
7.630000 -110.127452 539.351435 -0.000000 0.433232 0.257727 -0.126918 110.111933 0.069759 -0.000000 0.168799 0.385133 -0.363076
7.635000 -101.480185 558.434679 -0.000000 0.429560 0.248043 -0.126450 104.561690 -5.450437 -0.000000 0.173676 0.394996 -0.362815
7.640000 -89.630873 576.137191 -0.000000 0.425187 0.237989 -0.126244 98.363829 -11.424150 -0.000000 0.179181 0.404514 -0.362920
7.645000 -76.749181 591.233748 -0.000000 0.420191 0.228727 -0.126234 91.573071 -17.467239 -0.000000 0.185112 0.413617 -0.362864
7.650000 -61.946691 603.100118 -0.000000 0.414825 0.219796 -0.125998 84.170640 -23.715365 -0.000000 0.191652 0.422453 -0.362870
7.655000 -46.075848 610.964156 -0.000000 0.408916 0.211276 -0.125957 76.164343 -29.999832 -0.000000 0.198240 0.430950 -0.362430
7.660000 -26.345005 614.389073 -0.000000 0.402661 0.203159 -0.125879 67.380565 -36.588035 -0.000000 0.207118 0.438963 -0.364236
7.665000 -8.518063 612.531972 -0.000000 0.395995 0.195453 -0.125812 58.138959 -42.754409 -0.000000 0.214384 0.446609 -0.362877
7.670000 10.373198 605.149391 -0.000000 0.388992 0.188307 -0.125759 48.298708 -48.783397 -0.000000 0.222415 0.453831 -0.363112
7.675000 28.957206 591.906662 -0.000000 0.381726 0.181812 -0.125645 37.981635 -54.444795 -0.000000 0.230768 0.460408 -0.363129
7.680000 47.575638 572.595541 -0.000000 0.374168 0.175683 -0.125518 27.189025 -59.630213 -0.000000 0.239497 0.466652 -0.363198
7.685000 65.245649 547.263793 -0.000000 0.366329 0.170202 -0.125387 16.069101 -64.171355 -0.000000 0.248570 0.472287 -0.363161
7.690000 81.585887 516.222685 -0.000000 0.358247 0.165358 -0.125229 4.769895 -68.004599 -0.000000 0.258039 0.477374 -0.363488
7.695000 95.334362 480.282466 -0.000000 0.349904 0.160986 -0.125227 -6.383904 -71.123810 -0.000000 0.267343 0.481761 -0.363698
7.700000 106.722840 440.382692 -0.000000 0.341402 0.157309 -0.125356 -17.241871 -73.585837 -0.000000 0.277018 0.485569 -0.363978
7.705000 115.060851 397.915857 -0.000000 0.332692 0.154125 -0.125500 -27.536590 -75.468719 -0.000000 0.286629 0.488752 -0.364113
7.710000 120.218408 354.302000 -0.000000 0.323950 0.151819 -0.125353 -37.088456 -76.833059 -0.000000 0.296267 0.491205 -0.364251
7.715000 122.541813 310.754891 -0.000000 0.315144 0.150152 -0.125138 -45.827803 -77.638955 -0.000000 0.305945 0.493208 -0.364523
7.720000 122.343305 268.307751 -0.000000 0.306173 0.149049 -0.125204 -53.707898 -77.753627 -0.000000 0.315577 0.494326 -0.364669
7.725000 119.796313 227.830554 -0.000000 0.297309 0.148607 -0.125330 -60.651358 -77.023180 -0.000000 0.325121 0.494879 -0.364826
7.730000 115.485859 189.754735 -0.000000 0.288329 0.148954 -0.125508 -66.743585 -75.196307 -0.000000 0.334538 0.494696 -0.364942
7.735000 109.511268 154.586592 -0.000000 0.279488 0.149866 -0.126004 -71.979506 -72.176280 -0.000000 0.343559 0.493948 -0.365212
7.740000 102.573884 122.292417 -0.000000 0.270611 0.151449 -0.126221 -76.714137 -67.614837 -0.000000 0.352720 0.492439 -0.365480
7.745000 94.677865 93.201190 -0.000000 0.261734 0.153652 -0.126176 -81.081752 -61.432676 -0.000000 0.361381 0.490179 -0.365799
7.750000 86.159766 67.386002 -0.000000 0.253088 0.156384 -0.125958 -85.397437 -53.390649 -0.000000 0.369683 0.486936 -0.365967
7.755000 77.358835 44.891488 -0.000000 0.244555 0.159781 -0.125788 -89.958237 -43.215688 -0.000000 0.377637 0.483271 -0.366436
7.760000 68.568157 25.729139 -0.000000 0.236198 0.163817 -0.125785 -94.981631 -30.677086 -0.000000 0.385091 0.478883 -0.366674
7.765000 60.032291 9.818130 -0.000000 0.228127 0.168344 -0.125743 -100.620948 -15.605317 -0.000000 0.392098 0.473789 -0.366955
7.770000 51.939675 -3.025359 -0.000000 0.220349 0.173487 -0.125662 -106.960868 2.180527 -0.000000 0.398805 0.468092 -0.367459
7.775000 44.417918 -12.955020 -0.000000 0.212810 0.179132 -0.125663 -113.984565 22.747749 -0.000000 0.405172 0.461869 -0.367796
7.780000 37.597644 -20.105845 -0.000000 0.205640 0.185383 -0.125642 -121.672511 45.971229 -0.000000 0.410795 0.454950 -0.368253
7.785000 31.586481 -24.683569 -0.000000 0.198963 0.192082 -0.125546 -130.009373 71.638376 -0.000000 0.416057 0.447370 -0.368447
7.790000 26.448552 -26.903251 -0.000000 0.192623 0.199231 -0.125309 -138.990412 99.290494 -0.000000 0.421016 0.439222 -0.368832
7.795000 22.159858 -27.020854 -0.000000 0.186120 0.207007 -0.125974 -148.367784 128.545253 -0.000000 0.425831 0.430379 -0.368995
7.800000 18.842251 -25.145496 -0.000000 0.180652 0.215113 -0.125872 -158.508583 158.079355 -0.000000 0.430580 0.421177 -0.369430
7.805000 16.510462 -21.476339 -0.000000 0.175675 0.223568 -0.125770 -169.412278 187.051448 -0.000000 0.434686 0.411656 -0.369639
7.810000 15.168456 -16.219781 -0.000000 0.171306 0.232324 -0.125703 -180.745534 214.937809 -0.000000 0.438696 0.401745 -0.369875
7.815000 14.874141 -9.601760 -0.000000 0.167427 0.241484 -0.125791 -192.223242 241.302054 -0.000000 0.442363 0.391545 -0.370002
7.820000 15.684363 -1.923851 -0.000000 0.164277 0.250872 -0.125719 -203.733220 265.803137 -0.000000 0.445832 0.381271 -0.369987
7.825000 17.564726 6.382937 -0.000000 0.161574 0.260413 -0.125710 -214.818985 288.577449 -0.000000 0.448613 0.370751 -0.370189
7.830000 20.367867 14.801291 -0.000000 0.159486 0.270308 -0.125739 -224.881293 309.994539 -0.000000 0.451007 0.360183 -0.370083
7.835000 23.815512 22.817856 -0.000000 0.158716 0.280549 -0.125000 -233.528178 330.400067 -0.000000 0.452942 0.349485 -0.370044
7.840000 27.536024 29.959743 -0.000000 0.157184 0.290748 -0.125773 -240.270857 350.369404 -0.000000 0.454378 0.338668 -0.369809
7.845000 31.048887 35.877070 -0.000000 0.156930 0.301152 -0.125794 -245.157883 370.225790 -0.000000 0.455129 0.327771 -0.369694
7.850000 33.855142 40.339890 -0.000000 0.157458 0.311589 -0.125706 -248.052553 390.448279 -0.000000 0.455230 0.316867 -0.369624
7.855000 35.526959 43.256578 -0.000000 0.158382 0.322212 -0.125765 -248.450584 411.647810 -0.000000 0.454976 0.305935 -0.369472
7.860000 35.667316 44.741915 -0.000000 0.160021 0.332802 -0.125958 -246.347388 433.926841 -0.000000 0.453634 0.295016 -0.369526
7.865000 34.023752 45.023480 -0.000000 0.162162 0.343357 -0.125866 -241.577280 457.273099 -0.000000 0.451899 0.284176 -0.369434
7.870000 30.570596 44.372399 -0.000000 0.165374 0.353914 -0.126235 -233.517930 481.676597 -0.000000 0.449516 0.273423 -0.369365
7.875000 25.385134 43.134571 -0.000000 0.168804 0.364350 -0.126457 -222.573940 506.402156 -0.000000 0.446443 0.262907 -0.369286
7.880000 18.770592 41.556915 -0.000000 0.173030 0.374654 -0.126587 -208.504617 530.929080 -0.000000 0.442805 0.252693 -0.369241
7.885000 11.073551 39.864198 -0.000000 0.177269 0.384753 -0.126463 -191.812845 554.374564 -0.000000 0.438633 0.242643 -0.369160
7.890000 2.788483 38.223930 -0.000000 0.182507 0.394925 -0.126869 -171.746875 576.272240 -0.000000 0.433966 0.232959 -0.368909
